<?xml version="1.0" encoding="UTF-8"?>
<svg id="Layer_2" data-name="Layer 2" xmlns="http://www.w3.org/2000/svg" xmlns:xlink="http://www.w3.org/1999/xlink" viewBox="0 0 698.02 630.69">
  <defs>
    <style>
      .cls-1 {
        fill: url(#linear-gradient-2);
      }

      .cls-2 {
        fill: url(#linear-gradient-6);
      }

      .cls-3 {
        fill: #02007f;
      }

      .cls-4 {
        fill: url(#linear-gradient-11);
      }

      .cls-5 {
        fill: url(#linear-gradient-10);
      }

      .cls-6 {
        fill: url(#linear-gradient-5);
      }

      .cls-7 {
        fill: url(#linear-gradient-7);
      }

      .cls-8 {
        fill: url(#linear-gradient-9);
      }

      .cls-9 {
        fill: url(#linear-gradient-3);
      }

      .cls-10 {
        fill: url(#linear-gradient);
      }

      .cls-11 {
        fill: url(#linear-gradient-4);
      }

      .cls-12 {
        fill: url(#linear-gradient-8);
      }

      .cls-13 {
        fill: url(#linear-gradient-12);
      }

      .cls-14 {
        fill: url(#linear-gradient-13);
      }
    </style>
    <linearGradient id="linear-gradient" x1="526.31" y1="347.18" x2="79.69" y2="33.26" gradientUnits="userSpaceOnUse">
      <stop offset="0" stop-color="#02007f"/>
      <stop offset="1" stop-color="#2174b8"/>
    </linearGradient>
    <linearGradient id="linear-gradient-2" x1="480.9" y1="411.76" x2="34.3" y2="97.85" xlink:href="#linear-gradient"/>
    <linearGradient id="linear-gradient-3" x1="535.37" y1="334.29" x2="88.75" y2="20.38" xlink:href="#linear-gradient"/>
    <linearGradient id="linear-gradient-4" x1="517.12" y1="360.24" x2="70.51" y2="46.33" xlink:href="#linear-gradient"/>
    <linearGradient id="linear-gradient-5" x1="474.04" y1="421.54" x2="27.42" y2="107.63" xlink:href="#linear-gradient"/>
    <linearGradient id="linear-gradient-6" x1="438.57" y1="472" x2="-8.04" y2="158.09" xlink:href="#linear-gradient"/>
    <linearGradient id="linear-gradient-7" x1="443.46" y1="465.06" x2="-3.16" y2="151.14" xlink:href="#linear-gradient"/>
    <linearGradient id="linear-gradient-8" x1="510.23" y1="370.05" x2="63.62" y2="56.14" xlink:href="#linear-gradient"/>
    <linearGradient id="linear-gradient-9" x1="546.99" y1="317.74" x2="100.39" y2="3.83" xlink:href="#linear-gradient"/>
    <linearGradient id="linear-gradient-10" x1="481.26" y1="411.28" x2="34.64" y2="97.36" xlink:href="#linear-gradient"/>
    <linearGradient id="linear-gradient-11" x1="449.39" y1="456.63" x2="2.77" y2="142.71" xlink:href="#linear-gradient"/>
    <linearGradient id="linear-gradient-12" x1="519.94" y1="356.24" x2="73.32" y2="42.33" xlink:href="#linear-gradient"/>
    <linearGradient id="linear-gradient-13" x1="495.4" y1="391.15" x2="48.79" y2="77.24" xlink:href="#linear-gradient"/>
  </defs>
  <g id="Layer_1-2" data-name="Layer 1">
    <g>
      <g>
        <path class="cls-10" d="m201.23,63.23c0-3.92-3.21-7.13-7.13-7.13h-59.25c-3.92,0-7.13,3.21-7.13,7.13v59.25c0,3.92,3.21,7.13,7.13,7.13h59.25c3.92,0,7.13-3.21,7.13-7.13v-59.25Z"/>
        <path class="cls-1" d="m127.71,136.75c0-3.92-3.21-7.13-7.13-7.14h-25.54c-3.93,0-7.14,3.21-7.14,7.14v25.55c0,3.92,3.21,7.13,7.14,7.13h25.54c3.93,0,7.13-3.21,7.13-7.14v-25.54Z"/>
        <path class="cls-9" d="m127.71,7.13c0-3.92-3.21-7.13-7.13-7.13h-41.82c-3.92,0-7.13,3.21-7.13,7.13v41.82c0,3.92,3.21,7.13,7.13,7.13h41.82c3.93,0,7.14-3.21,7.13-7.13V7.13Z"/>
        <path class="cls-11" d="m259.1,136.75c0-3.92-3.21-7.13-7.13-7.14h-43.6c-3.92,0-7.13,3.21-7.13,7.14v43.6c0,3.92,3.21,7.13,7.13,7.13h43.6c3.92,0,7.13-3.21,7.13-7.14v-43.6Z"/>
        <path class="cls-6" d="m201.23,194.62c0-3.92-3.21-7.13-7.13-7.13h-35.42c-3.92,0-7.13,3.21-7.13,7.13v35.42c0,3.93,3.21,7.14,7.13,7.14h35.42c3.92,0,7.13-3.21,7.13-7.13v-35.42Z"/>
        <path class="cls-2" d="m151.54,244.31c0-3.92-3.21-7.13-7.13-7.13h-24.58c-3.92,0-7.13,3.21-7.14,7.13v24.58c0,3.93,3.21,7.14,7.14,7.13h24.58c3.93,0,7.14-3.21,7.13-7.13v-24.58Z"/>
        <path class="cls-7" d="m112.69,213.35c0-3.92-3.21-7.14-7.13-7.14h-16.69c-3.92,0-7.13,3.21-7.13,7.14v16.69c0,3.92,3.21,7.13,7.13,7.13h16.69c3.92,0,7.13-3.21,7.13-7.13v-16.69Z"/>
        <path class="cls-12" d="m266.24,187.48h26.46c3.94,0,7.13,3.2,7.13,7.13v26.46c0,3.94-3.2,7.13-7.13,7.13h-26.46c-3.94,0-7.13-3.2-7.13-7.13v-26.46c0-3.94,3.2-7.13,7.13-7.13Z"/>
        <path class="cls-8" d="m350.88,143.56c0-3.92-3.21-7.13-7.13-7.13h-36.78c-3.92,0-7.13,3.21-7.13,7.13v36.78c0,3.92,3.21,7.14,7.13,7.14h36.78c3.92,0,7.13-3.21,7.13-7.13v-36.78Z"/>
        <path class="cls-5" d="m234.62,228.21h17.35c3.94,0,7.13,3.2,7.13,7.13v17.35c0,3.94-3.2,7.13-7.13,7.13h-17.35c-3.94,0-7.13-3.2-7.13-7.13v-17.35c0-3.94,3.2-7.13,7.13-7.13Z"/>
        <path class="cls-4" d="m227.49,266.96c0-3.92-3.21-7.13-7.13-7.13h-33.69c-3.92,0-7.13,3.21-7.13,7.13v33.69c0,3.92,3.21,7.13,7.13,7.13h33.69c3.92,0,7.13-3.21,7.13-7.13v-33.69Z"/>
      </g>
      <path class="cls-13" d="m522.06,104.51L354.81,7.95c-8.83-5.1-23.29-5.1-32.13,0l-106.99,61.77v45.42h49.83c4.42,0,8.04,3.62,8.04,8.04v49.83s11.79,0,11.79,0v-43.01c0-4.42,3.62-8.04,8.04-8.04h63.91c4.42,0,8.04,3.62,8.04,8.04v63.91c0,4.42-3.62,8.04-8.04,8.04h-43.01v32.69c0,4.42-3.62,8.04-8.04,8.04h-32.69v23.58c0,4.42-3.62,8.04-8.04,8.04h-23.58v39.92c0,4.42-3.62,8.04-8.04,8.04h-60.82c-4.42,0-8.04-3.62-8.04-8.04v-23.72h-25.68v34.96c0,10.2,7.23,22.72,16.06,27.82l167.25,96.56c8.83,5.1,23.29,5.1,32.13,0l167.25-96.56c8.83-5.1,16.06-17.62,16.06-27.82v-193.12c0-10.2-7.23-22.72-16.06-27.82Z"/>
      <path class="cls-14" d="m149.31,144.08h30.31c3.94,0,7.14,3.2,7.14,7.14v14.67c0,3.94-3.2,7.13-7.13,7.13h-30.31c-3.94,0-7.13-3.2-7.13-7.13v-14.67c0-3.94,3.2-7.13,7.13-7.13Z"/>
    </g>
    <g>
      <path class="cls-3" d="m19.38,572.79v29.64H0v-86.04h30.36c21.68,0,32.52,9.14,32.52,27.42,0,8.64-3.11,15.63-9.33,20.97-6.22,5.34-14.53,8.01-24.93,8.01h-9.24Zm0-41.52v26.82h7.62c10.32,0,15.48-4.52,15.48-13.56s-5.16-13.26-15.48-13.26h-7.62Z"/>
      <path class="cls-3" d="m113.71,558.09c-2.28-1.24-4.94-1.86-7.98-1.86-4.12,0-7.34,1.51-9.66,4.53-2.32,3.02-3.48,7.13-3.48,12.33v29.34h-18.96v-61.44h18.96v11.4h.24c3-8.32,8.4-12.48,16.2-12.48,2,0,3.56.24,4.68.72v17.46Z"/>
      <path class="cls-3" d="m132.13,531.26c-3.2,0-5.82-.95-7.86-2.85-2.04-1.9-3.06-4.23-3.06-6.99s1.02-5.16,3.06-6.96,4.66-2.7,7.86-2.7,5.87.9,7.89,2.7c2.02,1.8,3.03,4.12,3.03,6.96s-1.01,5.24-3.03,7.08c-2.02,1.84-4.65,2.76-7.89,2.76Zm9.36,71.16h-18.96v-61.44h18.96v61.44Z"/>
      <path class="cls-3" d="m216.79,602.43h-18.9v-34.14c0-9.52-3.4-14.28-10.2-14.28-3.28,0-5.98,1.26-8.1,3.78-2.12,2.52-3.18,5.72-3.18,9.6v35.04h-18.96v-61.44h18.96v9.72h.24c4.52-7.48,11.1-11.22,19.74-11.22,13.6,0,20.4,8.44,20.4,25.32v37.62Z"/>
      <path class="cls-3" d="m268.94,601.71c-2.8,1.48-7.02,2.22-12.66,2.22-13.36,0-20.04-6.94-20.04-20.82v-28.14h-9.96v-13.98h9.96v-13.26l18.9-5.4v18.66h13.8v13.98h-13.8v24.84c0,6.4,2.54,9.6,7.62,9.6,2,0,4.06-.58,6.18-1.74v14.04Z"/>
      <path class="cls-3" d="m277.52,599.13v-19.2c3.48,2.92,7.26,5.11,11.34,6.57,4.08,1.46,8.2,2.19,12.36,2.19,2.44,0,4.57-.22,6.39-.66s3.34-1.05,4.56-1.83c1.22-.78,2.13-1.7,2.73-2.76.6-1.06.9-2.21.9-3.45,0-1.68-.48-3.18-1.44-4.5s-2.27-2.54-3.93-3.66c-1.66-1.12-3.63-2.2-5.91-3.24-2.28-1.04-4.74-2.1-7.38-3.18-6.72-2.8-11.73-6.22-15.03-10.26s-4.95-8.92-4.95-14.64c0-4.48.9-8.33,2.7-11.55,1.8-3.22,4.25-5.87,7.35-7.95,3.1-2.08,6.69-3.61,10.77-4.59,4.08-.98,8.4-1.47,12.96-1.47s8.45.27,11.91.81c3.46.54,6.65,1.37,9.57,2.49v17.94c-1.44-1-3.01-1.88-4.71-2.64-1.7-.76-3.45-1.39-5.25-1.89-1.8-.5-3.59-.87-5.37-1.11-1.78-.24-3.47-.36-5.07-.36-2.2,0-4.2.21-6,.63s-3.32,1.01-4.56,1.77-2.2,1.67-2.88,2.73c-.68,1.06-1.02,2.25-1.02,3.57,0,1.44.38,2.73,1.14,3.87.76,1.14,1.84,2.22,3.24,3.24,1.4,1.02,3.1,2.02,5.1,3,2,.98,4.26,1.99,6.78,3.03,3.44,1.44,6.53,2.97,9.27,4.59,2.74,1.62,5.09,3.45,7.05,5.49s3.46,4.37,4.5,6.99c1.04,2.62,1.56,5.67,1.56,9.15,0,4.8-.91,8.83-2.73,12.09-1.82,3.26-4.29,5.9-7.41,7.92-3.12,2.02-6.75,3.47-10.89,4.35-4.14.88-8.51,1.32-13.11,1.32s-9.21-.4-13.47-1.2-7.95-2-11.07-3.6Z"/>
      <path class="cls-3" d="m367.7,595.29h-.24v35.4h-18.96v-89.71h18.96v9.24h.24c4.68-7.16,11.26-10.74,19.74-10.74,7.96,0,14.11,2.73,18.45,8.19,4.34,5.46,6.51,12.89,6.51,22.29,0,10.24-2.53,18.46-7.59,24.66-5.06,6.2-11.79,9.3-20.19,9.3-7.4,0-13.04-2.88-16.92-8.64Zm-.54-25.2v4.92c0,4.24,1.12,7.7,3.36,10.38,2.24,2.68,5.18,4.02,8.82,4.02,4.32,0,7.67-1.67,10.05-5.01,2.38-3.34,3.57-8.07,3.57-14.19,0-10.8-4.2-16.2-12.6-16.2-3.88,0-7.05,1.47-9.51,4.41s-3.69,6.83-3.69,11.67Z"/>
      <path class="cls-3" d="m479.91,577.11h-40.08c.64,8.92,6.26,13.38,16.86,13.38,6.76,0,12.7-1.6,17.82-4.8v13.68c-5.68,3.04-13.06,4.56-22.14,4.56-9.92,0-17.62-2.75-23.1-8.25-5.48-5.5-8.22-13.17-8.22-23.01s2.96-18.28,8.88-24.24c5.92-5.96,13.2-8.94,21.84-8.94s15.89,2.66,20.79,7.98c4.9,5.32,7.35,12.54,7.35,21.66v7.98Zm-17.58-11.64c0-8.8-3.56-13.2-10.68-13.2-3.04,0-5.67,1.26-7.89,3.78-2.22,2.52-3.57,5.66-4.05,9.42h22.62Z"/>
      <path class="cls-3" d="m537.75,600.21c-4.28,2.48-10.46,3.72-18.54,3.72-9.44,0-17.08-2.86-22.92-8.58-5.84-5.72-8.76-13.1-8.76-22.14,0-10.44,3.13-18.67,9.39-24.69,6.26-6.02,14.63-9.03,25.11-9.03,7.24,0,12.48.96,15.72,2.88v16.08c-3.96-2.96-8.38-4.44-13.26-4.44-5.44,0-9.75,1.59-12.93,4.77s-4.77,7.57-4.77,13.17,1.52,9.71,4.56,12.81c3.04,3.1,7.22,4.65,12.54,4.65,4.72,0,9.34-1.48,13.86-4.44v15.24Z"/>
      <path class="cls-3" d="m587.31,601.71c-2.8,1.48-7.02,2.22-12.66,2.22-13.36,0-20.04-6.94-20.04-20.82v-28.14h-9.96v-13.98h9.96v-13.26l18.9-5.4v18.66h13.8v13.98h-13.8v24.84c0,6.4,2.54,9.6,7.62,9.6,2,0,4.06-.58,6.18-1.74v14.04Z"/>
      <path class="cls-3" d="m638.08,558.09c-2.28-1.24-4.94-1.86-7.98-1.86-4.12,0-7.34,1.51-9.66,4.53-2.32,3.02-3.48,7.13-3.48,12.33v29.34h-18.96v-61.44h18.96v11.4h.24c3-8.32,8.4-12.48,16.2-12.48,2,0,3.56.24,4.68.72v17.46Z"/>
      <path class="cls-3" d="m698.02,602.43h-17.94v-8.82h-.24c-4.12,6.88-10.22,10.32-18.3,10.32-5.96,0-10.65-1.69-14.07-5.07-3.42-3.38-5.13-7.89-5.13-13.53,0-11.92,7.06-18.8,21.18-20.64l16.68-2.22c0-6.72-3.64-10.08-10.92-10.08s-14.28,2.18-20.88,6.54v-14.28c2.64-1.36,6.25-2.56,10.83-3.6,4.58-1.04,8.75-1.56,12.51-1.56,17.52,0,26.28,8.74,26.28,26.22v36.72Zm-17.82-24.96v-4.14l-11.16,1.44c-6.16.8-9.24,3.58-9.24,8.34,0,2.16.75,3.93,2.25,5.31,1.5,1.38,3.53,2.07,6.09,2.07,3.56,0,6.46-1.23,8.7-3.69s3.36-5.57,3.36-9.33Z"/>
    </g>
  </g>
</svg>