<?xml version="1.0" encoding="UTF-8"?>
<svg id="Layer_2" data-name="Layer 2" xmlns="http://www.w3.org/2000/svg" xmlns:xlink="http://www.w3.org/1999/xlink" viewBox="0 0 668.55 611.88">
  <defs>
    <style>
      .cls-1 {
        fill: #001073;
      }

      .cls-2 {
        fill: url(#New_Gradient_Swatch_1-9);
      }

      .cls-3 {
        fill: url(#New_Gradient_Swatch_1-12);
      }

      .cls-4 {
        fill: url(#New_Gradient_Swatch_1-10);
      }

      .cls-5 {
        fill: url(#New_Gradient_Swatch_1-3);
      }

      .cls-6 {
        fill: url(#New_Gradient_Swatch_1-5);
      }

      .cls-7 {
        fill: url(#New_Gradient_Swatch_1-7);
      }

      .cls-8 {
        fill: url(#New_Gradient_Swatch_1-6);
      }

      .cls-9 {
        fill: url(#New_Gradient_Swatch_1-11);
      }

      .cls-10 {
        fill: url(#New_Gradient_Swatch_1-13);
      }

      .cls-11 {
        fill: url(#New_Gradient_Swatch_1);
      }

      .cls-12 {
        fill: url(#New_Gradient_Swatch_1-2);
      }

      .cls-13 {
        fill: url(#New_Gradient_Swatch_1-8);
      }

      .cls-14 {
        fill: url(#New_Gradient_Swatch_1-4);
      }
    </style>
    <linearGradient id="New_Gradient_Swatch_1" data-name="New Gradient Swatch 1" x1="553.05" y1="347.18" x2="106.43" y2="33.26" gradientUnits="userSpaceOnUse">
      <stop offset="0" stop-color="#02007f"/>
      <stop offset="1" stop-color="#2174b8"/>
    </linearGradient>
    <linearGradient id="New_Gradient_Swatch_1-2" data-name="New Gradient Swatch 1" x1="507.64" y1="411.76" x2="61.04" y2="97.85" xlink:href="#New_Gradient_Swatch_1"/>
    <linearGradient id="New_Gradient_Swatch_1-3" data-name="New Gradient Swatch 1" x1="562.11" y1="334.29" x2="115.49" y2="20.38" xlink:href="#New_Gradient_Swatch_1"/>
    <linearGradient id="New_Gradient_Swatch_1-4" data-name="New Gradient Swatch 1" x1="543.86" y1="360.24" x2="97.25" y2="46.33" xlink:href="#New_Gradient_Swatch_1"/>
    <linearGradient id="New_Gradient_Swatch_1-5" data-name="New Gradient Swatch 1" x1="500.78" y1="421.54" x2="54.17" y2="107.63" xlink:href="#New_Gradient_Swatch_1"/>
    <linearGradient id="New_Gradient_Swatch_1-6" data-name="New Gradient Swatch 1" x1="465.31" y1="472" x2="18.7" y2="158.09" xlink:href="#New_Gradient_Swatch_1"/>
    <linearGradient id="New_Gradient_Swatch_1-7" data-name="New Gradient Swatch 1" x1="470.2" y1="465.06" x2="23.58" y2="151.14" xlink:href="#New_Gradient_Swatch_1"/>
    <linearGradient id="New_Gradient_Swatch_1-8" data-name="New Gradient Swatch 1" x1="536.97" y1="370.05" x2="90.37" y2="56.14" xlink:href="#New_Gradient_Swatch_1"/>
    <linearGradient id="New_Gradient_Swatch_1-9" data-name="New Gradient Swatch 1" x1="573.73" y1="317.74" x2="127.13" y2="3.83" xlink:href="#New_Gradient_Swatch_1"/>
    <linearGradient id="New_Gradient_Swatch_1-10" data-name="New Gradient Swatch 1" x1="508" y1="411.28" x2="61.38" y2="97.36" xlink:href="#New_Gradient_Swatch_1"/>
    <linearGradient id="New_Gradient_Swatch_1-11" data-name="New Gradient Swatch 1" x1="476.13" y1="456.63" x2="29.51" y2="142.71" xlink:href="#New_Gradient_Swatch_1"/>
    <linearGradient id="New_Gradient_Swatch_1-12" data-name="New Gradient Swatch 1" x1="546.68" y1="356.24" x2="100.07" y2="42.33" xlink:href="#New_Gradient_Swatch_1"/>
    <linearGradient id="New_Gradient_Swatch_1-13" data-name="New Gradient Swatch 1" x1="522.14" y1="391.15" x2="75.53" y2="77.24" xlink:href="#New_Gradient_Swatch_1"/>
  </defs>
  <g id="Layer_1-2" data-name="Layer 1">
    <g>
      <g>
        <path class="cls-11" d="m227.97,63.23c0-3.92-3.21-7.13-7.13-7.13h-59.25c-3.92,0-7.13,3.21-7.13,7.13v59.25c0,3.92,3.21,7.13,7.13,7.13h59.25c3.92,0,7.13-3.21,7.13-7.13v-59.25Z"/>
        <path class="cls-12" d="m154.45,136.75c0-3.92-3.21-7.13-7.13-7.14h-25.54c-3.93,0-7.14,3.21-7.14,7.14v25.55c0,3.92,3.21,7.13,7.14,7.13h25.54c3.93,0,7.13-3.21,7.13-7.14v-25.54Z"/>
        <path class="cls-5" d="m154.45,7.13c0-3.92-3.21-7.13-7.13-7.13h-41.82c-3.92,0-7.13,3.21-7.13,7.13v41.82c0,3.92,3.21,7.13,7.13,7.13h41.82c3.93,0,7.14-3.21,7.13-7.13V7.13Z"/>
        <path class="cls-14" d="m285.84,136.75c0-3.92-3.21-7.13-7.13-7.14h-43.6c-3.92,0-7.13,3.21-7.13,7.14v43.6c0,3.92,3.21,7.13,7.13,7.13h43.6c3.92,0,7.13-3.21,7.13-7.14v-43.6Z"/>
        <path class="cls-6" d="m227.97,194.62c0-3.92-3.21-7.13-7.13-7.13h-35.42c-3.92,0-7.13,3.21-7.13,7.13v35.42c0,3.93,3.21,7.14,7.13,7.14h35.42c3.92,0,7.13-3.21,7.13-7.13v-35.42Z"/>
        <path class="cls-8" d="m178.28,244.31c0-3.92-3.21-7.13-7.13-7.13h-24.58c-3.92,0-7.13,3.21-7.14,7.13v24.58c0,3.93,3.21,7.14,7.14,7.13h24.58c3.93,0,7.14-3.21,7.13-7.13v-24.58Z"/>
        <path class="cls-7" d="m139.43,213.35c0-3.92-3.21-7.14-7.13-7.14h-16.69c-3.92,0-7.13,3.21-7.13,7.14v16.69c0,3.92,3.21,7.13,7.13,7.13h16.69c3.92,0,7.13-3.21,7.13-7.13v-16.69Z"/>
        <path class="cls-13" d="m292.98,187.48h26.46c3.94,0,7.13,3.2,7.13,7.13v26.46c0,3.94-3.2,7.13-7.13,7.13h-26.46c-3.94,0-7.13-3.2-7.13-7.13v-26.46c0-3.94,3.2-7.13,7.13-7.13Z"/>
        <path class="cls-2" d="m377.62,143.56c0-3.92-3.21-7.13-7.13-7.13h-36.78c-3.92,0-7.13,3.21-7.13,7.13v36.78c0,3.92,3.21,7.14,7.13,7.14h36.78c3.92,0,7.13-3.21,7.13-7.13v-36.78Z"/>
        <path class="cls-4" d="m261.36,228.21h17.35c3.94,0,7.13,3.2,7.13,7.13v17.35c0,3.94-3.2,7.13-7.13,7.13h-17.35c-3.94,0-7.13-3.2-7.13-7.13v-17.35c0-3.94,3.2-7.13,7.13-7.13Z"/>
        <path class="cls-9" d="m254.23,266.96c0-3.92-3.21-7.13-7.13-7.13h-33.69c-3.92,0-7.13,3.21-7.13,7.13v33.69c0,3.92,3.21,7.13,7.13,7.13h33.69c3.92,0,7.13-3.21,7.13-7.13v-33.69Z"/>
      </g>
      <path class="cls-3" d="m548.8,104.51L381.55,7.95c-8.83-5.1-23.29-5.1-32.13,0l-106.99,61.77v45.42h49.83c4.42,0,8.04,3.62,8.04,8.04v49.83s11.79,0,11.79,0v-43.01c0-4.42,3.62-8.04,8.04-8.04h63.91c4.42,0,8.04,3.62,8.04,8.04v63.91c0,4.42-3.62,8.04-8.04,8.04h-43.01v32.69c0,4.42-3.62,8.04-8.04,8.04h-32.69v23.58c0,4.42-3.62,8.04-8.04,8.04h-23.58v39.92c0,4.42-3.62,8.04-8.04,8.04h-60.82c-4.42,0-8.04-3.62-8.04-8.04v-23.72h-25.68v34.96c0,10.2,7.23,22.72,16.06,27.82l167.25,96.56c8.83,5.1,23.29,5.1,32.13,0l167.25-96.56c8.83-5.1,16.06-17.62,16.06-27.82v-193.12c0-10.2-7.23-22.72-16.06-27.82Z"/>
      <path class="cls-10" d="m176.05,144.08h30.31c3.94,0,7.13,3.2,7.13,7.13v14.67c0,3.94-3.2,7.13-7.13,7.13h-30.31c-3.94,0-7.13-3.2-7.13-7.13v-14.67c0-3.94,3.2-7.13,7.13-7.13Z"/>
    </g>
    <g>
      <path class="cls-1" d="m0,509.06c7.16-1.22,17.21-2.13,31.38-2.13s24.52,2.74,31.38,8.23c6.55,5.18,10.97,13.71,10.97,23.76s-3.35,18.58-9.44,24.37c-7.92,7.46-19.65,10.82-33.36,10.82-3.05,0-5.79-.15-7.92-.46v36.71H0v-101.3Zm23,46.61c1.98.46,4.42.61,7.77.61,12.34,0,19.96-6.25,19.96-16.76,0-9.44-6.55-15.08-18.13-15.08-4.72,0-7.92.46-9.6.91v30.31Z"/>
      <path class="cls-1" d="m110.28,515.15c0,6.4-4.87,11.58-12.49,11.58s-12.19-5.18-12.03-11.58c-.15-6.7,4.72-11.73,12.19-11.73s12.19,5.03,12.34,11.73Zm-23.92,95.21v-74.49h23.15v74.49h-23.15Z"/>
      <path class="cls-1" d="m145.77,535.87l7.31,12.34c2.13,3.81,4.11,7.62,6.09,11.12h.3c1.98-3.96,3.81-7.77,5.79-11.42l6.55-12.03h25.13l-24.52,35.49,24.83,39h-26.2l-7.46-13.41c-2.13-3.66-3.96-7.46-5.79-11.27h-.46c-1.83,3.96-3.81,7.62-5.64,11.27l-7.01,13.41h-25.44l25.29-37.93-24.68-36.56h25.9Z"/>
      <path class="cls-1" d="m221.63,580.5c.76,9.6,10.21,14.17,21.02,14.17,7.92,0,14.32-1.07,20.56-3.05l3.05,15.69c-7.62,3.05-16.91,4.57-26.96,4.57-25.29,0-39.76-14.62-39.76-37.93,0-18.89,11.73-39.76,37.63-39.76,24.07,0,33.21,18.74,33.21,37.17,0,3.96-.46,7.46-.76,9.14h-47.98Zm27.27-15.84c0-5.64-2.44-15.08-13.1-15.08-9.75,0-13.71,8.83-14.32,15.08h27.42Z"/>
      <path class="cls-1" d="m284.24,502.21h23.15v108.15h-23.15v-108.15Z"/>
      <path class="cls-1" d="m326.89,509.06c7.16-1.22,17.21-2.13,31.38-2.13s24.52,2.74,31.38,8.23c6.55,5.18,10.97,13.71,10.97,23.76s-3.35,18.58-9.44,24.37c-7.92,7.46-19.65,10.82-33.36,10.82-3.05,0-5.79-.15-7.92-.46v36.71h-23v-101.3Zm23,46.61c1.98.46,4.42.61,7.77.61,12.34,0,19.95-6.25,19.95-16.76,0-9.44-6.55-15.08-18.13-15.08-4.72,0-7.92.46-9.6.91v30.31Z"/>
      <path class="cls-1" d="m413.26,560.4c0-10.97-.3-18.13-.61-24.52h19.96l.76,13.71h.61c3.81-10.82,12.95-15.38,20.11-15.38,2.13,0,3.2,0,4.87.3v21.78c-1.67-.3-3.66-.61-6.25-.61-8.53,0-14.32,4.57-15.84,11.73-.3,1.52-.46,3.35-.46,5.18v37.78h-23.15v-49.96Z"/>
      <path class="cls-1" d="m487.74,580.5c.76,9.6,10.21,14.17,21.02,14.17,7.92,0,14.32-1.07,20.56-3.05l3.05,15.69c-7.62,3.05-16.91,4.57-26.96,4.57-25.29,0-39.76-14.62-39.76-37.93,0-18.89,11.73-39.76,37.63-39.76,24.07,0,33.21,18.74,33.21,37.17,0,3.96-.46,7.46-.76,9.14h-47.98Zm27.27-15.84c0-5.64-2.44-15.08-13.1-15.08-9.75,0-13.71,8.83-14.32,15.08h27.42Z"/>
      <path class="cls-1" d="m550.2,590.1c4.27,2.59,13.1,5.64,19.96,5.64s9.9-2.44,9.9-6.25-2.29-5.64-10.97-8.53c-15.38-5.18-21.33-13.56-21.17-22.39,0-13.86,11.88-24.37,30.31-24.37,8.68,0,16.45,1.98,21.02,4.26l-4.11,16c-3.35-1.83-9.75-4.27-16.15-4.27-5.64,0-8.83,2.29-8.83,6.09,0,3.5,2.89,5.33,12.03,8.53,14.17,4.87,20.11,12.03,20.26,23,0,13.86-10.97,24.07-32.29,24.07-9.75,0-18.43-2.13-24.07-5.18l4.11-16.6Z"/>
      <path class="cls-1" d="m616.31,590.1c4.27,2.59,13.1,5.64,19.96,5.64s9.9-2.44,9.9-6.25-2.29-5.64-10.97-8.53c-15.38-5.18-21.33-13.56-21.17-22.39,0-13.86,11.88-24.37,30.31-24.37,8.68,0,16.45,1.98,21.02,4.26l-4.11,16c-3.35-1.83-9.75-4.27-16.15-4.27-5.64,0-8.83,2.29-8.83,6.09,0,3.5,2.89,5.33,12.03,8.53,14.17,4.87,20.11,12.03,20.26,23,0,13.86-10.97,24.07-32.29,24.07-9.75,0-18.43-2.13-24.07-5.18l4.11-16.6Z"/>
    </g>
  </g>
</svg>